<?xml version="1.0"?>
<svg xmlns="http://www.w3.org/2000/svg" id="Layer_5" enable-background="new 0 0 64 64" height="512px" viewBox="0 0 64 64" width="512px"><g><g><path d="m26 33c-1.654 0-3 1.346-3 3s1.346 3 3 3 3-1.346 3-3-1.346-3-3-3zm0 4c-.552 0-1-.448-1-1s.448-1 1-1 1 .448 1 1-.448 1-1 1z" data-original="#000000" class="active-path" fill="#000000"/><path d="m18 31c1.654 0 3-1.346 3-3s-1.346-3-3-3-3 1.346-3 3 1.346 3 3 3zm0-4c.552 0 1 .448 1 1s-.448 1-1 1-1-.448-1-1 .448-1 1-1z" data-original="#000000" class="active-path" fill="#000000"/><path d="m13.515 31h16.971v2h-16.971z" transform="matrix(.707 -.707 .707 .707 -16.184 24.929)" data-original="#000000" class="active-path" fill="#000000"/><path d="m21 47h2v2h-2z" data-original="#000000" class="active-path" fill="#000000"/><path d="m25 46h2v2h-2z" data-original="#000000" class="active-path" fill="#000000"/><path d="m17 46h2v2h-2z" data-original="#000000" class="active-path" fill="#000000"/><path d="m52 37c1.654 0 3-1.346 3-3s-1.346-3-3-3h-2c-.552 0-1-.448-1-1s.448-1 1-1h3v1h2v-3h-3v-2h-2v2c-1.654 0-3 1.346-3 3s1.346 3 3 3h2c.552 0 1 .448 1 1s-.448 1-1 1h-3v-1h-2v3h3v2h2z" data-original="#000000" class="active-path" fill="#000000"/><path d="m60 43h-2.127c3.091-2.096 5.127-5.637 5.127-9.645 0-2.401-.728-4.71-2.104-6.678l-4.788-6.839 3.182-9.547-5.826-1.457-1.588 3.177-1.402-2.104-7.837 1.306 3.242 8.646-4.774 6.819c-1.377 1.968-2.105 4.276-2.105 6.677 0 4.008 2.036 7.549 5.127 9.645h-.127c-1.654 0-3 1.346-3 3v2c0 .352.072.686.184 1h-2.184v-1c0-4.417-1.688-8.549-4.736-11.729.468-1.34.736-2.773.736-4.271s-.268-2.931-.736-4.271c3.048-3.18 4.736-7.312 4.736-11.729v-9h1c1.654 0 3-1.346 3-3s-1.346-3-3-3h-36c-1.654 0-3 1.346-3 3s1.346 3 3 3h1v9c0 4.417 1.688 8.549 4.736 11.729-.468 1.34-.736 2.773-.736 4.271s.268 2.931.736 4.271c-3.048 3.18-4.736 7.312-4.736 11.729v9h-1c-1.654 0-3 1.346-3 3s1.346 3 3 3h34 2 20c1.654 0 3-1.346 3-3v-2c0-1.654-1.346-3-3-3h-1.184c.112-.314.184-.648.184-1v-2c0-.352-.072-.686-.184-1h1.184c1.654 0 3-1.346 3-3v-2c0-1.654-1.346-3-3-3zm-10.474-30.907 2.598 3.896 2.412-4.823 2.174.543-2.43 7.291h-6.586l-2.33-6.213zm-8.526 21.262c0-1.989.603-3.901 1.743-5.531l4.778-6.824h6.959l4.777 6.824c1.14 1.63 1.743 3.542 1.743 5.531 0 5.319-4.326 9.645-9.645 9.645h-.711c-5.318 0-9.644-4.326-9.644-9.645zm-30-1.355c0-6.065 4.935-11 11-11s11 4.935 11 11-4.935 11-11 11-11-4.935-11-11zm-8-28c0-.552.448-1 1-1h36c.552 0 1 .448 1 1s-.448 1-1 1h-36c-.552 0-1-.448-1-1zm34 3v4h-30v-4zm-30 9v-3h30v3c0 3.619-1.276 7.026-3.612 9.742-2.215-4.015-6.488-6.742-11.388-6.742s-9.173 2.727-11.388 6.742c-2.336-2.716-3.612-6.123-3.612-9.742zm3.612 22.258c2.215 4.015 6.488 6.742 11.388 6.742s9.173-2.727 11.388-6.742c2.336 2.716 3.612 6.123 3.612 9.742v8.534c-3.331-3.517-7.928-5.534-12.811-5.534h-4.379c-4.883 0-9.48 2.017-12.811 5.534v-8.534c.001-3.619 1.277-7.026 3.613-9.742zm24.008 18.742h-25.24c2.853-2.554 6.539-4 10.43-4h4.379c3.891 0 7.578 1.446 10.431 4zm3.38 4h-34c-.552 0-1-.448-1-1s.448-1 1-1h36c.552 0 1 .448 1 1s-.448 1-1 1zm23-3v2c0 .552-.448 1-1 1h-17.184c.112-.314.184-.648.184-1 0-1.654-1.346-3-3-3h5v2h2v-2h2v2h2v-2h2v2h2v-2h1 1v2h2v-2h1c.552 0 1 .448 1 1zm-4-6v2c0 .552-.448 1-1 1h-17v-4h2v2h2v-2h1 1v2h2v-2h2v2h2v-2h2v2h2v-2h1c.552 0 1 .448 1 1zm4-4c0 .552-.448 1-1 1h-4-12c-.552 0-1-.448-1-1v-2c0-.552.448-1 1-1h1v2h2v-2h2v2h2v-2h.355 1.645v2h2v-2h2v2h2v-2h1c.552 0 1 .448 1 1z" data-original="#000000" class="active-path" fill="#000000"/></g></g> </svg>
