<svg enable-background="new 0 0 24 24" height="512" viewBox="0 0 24 24" width="512" xmlns="http://www.w3.org/2000/svg"><g id="color"><g><g><path d="m20.766.75h-8.169c-.653 0-1.294.266-1.756.728l-8.913 8.913c-.968.968-.968 2.545 0 3.513l8.169 8.169c.485.485 1.121.727 1.756.727.636 0 1.272-.242 1.757-.727l8.913-8.913c.462-.462.728-1.103.728-1.756v-8.17c-.001-1.37-1.115-2.484-2.485-2.484z" fill="#ffc107"/></g></g><g><g><circle cx="19.5" cy="4.5" fill="#fff" r="1.5"/></g></g></g><g id="_x31_.5"><g><g><g><path d="m13.237 14.956c-.576 0-1.152-.22-1.591-.658l-1.414-1.414c-.877-.877-.877-2.305 0-3.182.848-.85 2.332-.85 3.182 0l1.415 1.414c.876.877.876 2.305 0 3.182-.439.438-1.015.658-1.592.658zm-1.414-4.413c-.2 0-.389.078-.53.22-.293.292-.293.769 0 1.061l1.414 1.414c.283.283.778.283 1.06 0 .292-.292.292-.769 0-1.061l-1.414-1.414c-.141-.142-.33-.22-.53-.22z"/></g></g><g><g><path d="m13.237 8.508c-.192 0-.384-.073-.53-.22-.293-.293-.293-.768 0-1.061l2.122-2.122c.293-.293.768-.293 1.061 0s.293.768 0 1.061l-2.122 2.122c-.147.147-.339.22-.531.22z"/></g></g><g><g><path d="m9.702 19.114c-.192 0-.384-.073-.53-.22l-3.536-3.536c-.293-.293-.293-.768 0-1.061s.768-.293 1.061 0l3.536 3.536c.293.293.293.768 0 1.061-.147.147-.339.22-.531.22z"/></g></g><g><g><path d="m11.823 16.992c-.192 0-.384-.073-.53-.22l-3.536-3.535c-.293-.293-.293-.768 0-1.061s.768-.293 1.061 0l3.536 3.535c.293.293.293.768 0 1.061-.147.147-.339.22-.531.22z"/></g></g><g><g><path d="m17.833 10.982c-.192 0-.384-.073-.53-.22l-3.536-3.536c-.293-.293-.293-.768 0-1.061s.768-.293 1.061 0l3.536 3.536c.293.293.293.768 0 1.061-.147.147-.339.22-.531.22z"/></g></g><g><g><path d="m7.934 17.347c-.192 0-.384-.073-.53-.22-.293-.293-.293-.768 0-1.061l2.122-2.122c.293-.293.768-.293 1.061 0s.293.768 0 1.061l-2.122 2.122c-.147.146-.339.22-.531.22z"/></g></g></g><g><g><path d="m11.595 23.998c-.692 0-1.385-.263-1.912-.79l-8.892-8.892c-.51-.51-.791-1.189-.791-1.912 0-.722.281-1.4.792-1.911l9.701-9.701c.511-.511 1.19-.792 1.912-.792h8.891c1.491 0 2.704 1.213 2.704 2.704v8.892c0 .711-.289 1.408-.792 1.911l-9.701 9.701c-.527.527-1.219.79-1.912.79zm.81-22.498c-.321 0-.624.125-.852.353l-9.7 9.701c-.228.227-.353.529-.353.85 0 .322.125.624.353.852l8.892 8.892c.469.469 1.233.469 1.703 0l9.701-9.701c.224-.225.353-.534.353-.851v-8.892c0-.664-.54-1.204-1.204-1.204z"/></g></g><g><g><path d="m19.5 6.5c-1.103 0-2-.897-2-2s.897-2 2-2 2 .897 2 2-.897 2-2 2zm0-2.5c-.276 0-.5.225-.5.5s.224.5.5.5.5-.225.5-.5-.224-.5-.5-.5z"/></g></g></g></svg>